<?xml version="1.0" encoding="utf-8"?>
<!-- Generator: Adobe Illustrator 24.2.0, SVG Export Plug-In . SVG Version: 6.00 Build 0)  -->
<svg version="1.1" id="Layer_1" xmlns="http://www.w3.org/2000/svg" xmlns:xlink="http://www.w3.org/1999/xlink" x="0px" y="0px"
	 viewBox="0 0 264 264" style="enable-background:new 0 0 264 264;" xml:space="preserve">
<style type="text/css">
	.st0{fill:#B20D24;}
	.st1{fill:#510715;}
	.st2{fill:#FFFF00;}
	.st3{fill:#D50F25;}
	.st4{fill:#7A0B1B;}
	.st5{fill:#1A1A1A;}
	.st6{fill:#333333;}
</style>
<rect x="6" y="166" class="st0" width="10" height="40"/>
<rect x="166" y="6" class="st0" width="40" height="10"/>
<rect x="10" y="146" class="st1" width="10" height="20"/>
<rect x="146" y="10" class="st1" width="20" height="10"/>
<rect x="6" y="126" class="st0" width="10" height="20"/>
<rect x="126" y="6" class="st0" width="20" height="10"/>
<path class="st1" d="M20,112c0-2,0.1-4,0.2-6H10v20h10V112z"/>
<path class="st1" d="M112,20h14V10h-20v10.2C108,20.1,110,20,112,20z"/>
<path class="st0" d="M106,16.2V6C50.8,6,6,50.8,6,106h10.2C19.2,57.8,57.8,19.2,106,16.2z"/>
<line class="st2" x1="206" y1="6" x2="206" y2="16"/>
<line class="st2" x1="16" y1="206" x2="6" y2="206"/>
<path class="st3" d="M166,70c0,53-43,96-96,96H16v40h98.5c15.1-42.6,48.8-76.4,91.5-91.5V16h-40V70z"/>
<path class="st4" d="M166,70V19h-20v43c0,46.4-37.6,84-84,84H19v20h51C123,166,166,123,166,70z"/>
<path class="st3" d="M146,62V16h-20v38c0,39.8-32.2,72-72,72H16v20h46C108.4,146,146,108.4,146,62z"/>
<path class="st4" d="M126,54V19h-14c-2,0-4,0.1-6,0.2V46c0,33.1-26.9,60-60,60H19.2c-0.1,2-0.2,4-0.2,6v14h35
	C93.8,126,126,93.8,126,54z"/>
<path class="st3" d="M106,46V16.2c-48.2,3-86.8,41.6-89.8,89.8H46C79.1,106,106,79.1,106,46z"/>
<path class="st2" d="M251.9,20"/>
<path class="st2" d="M206,114.5"/>
<path class="st2" d="M114.5,206"/>
<path class="st5" d="M206,0v16v91.7c0,4.1-2.5,7.7-6.3,9.3c-37.5,15.2-67.5,45.2-82.7,82.7c-1.5,3.8-5.2,6.3-9.3,6.3H16H0v50h16h90
	h27.5c11.9,0,22.1-8.4,24.5-20c2.2-10.7,6.1-20.8,11.4-30c8.8-15.2,21.4-27.8,36.6-36.6c9.2-5.3,19.3-9.2,30-11.4
	c11.7-2.4,20-12.6,20-24.5V106V16V0H206z"/>
<rect x="205.9" class="st6" width="50.1" height="13"/>
<rect y="205.9" class="st6" width="13" height="50.1"/>
</svg>
